<svg viewBox="0 0 124 105" width="124" height="105" xmlns="http://www.w3.org/2000/svg">
  <path d="M65.7 63.18l30.4-52.66 16.56 9.56c10.69 6.17 14.36 19.85 8.18 30.54l-17.12 29.65c-3.86 6.68-12.4 8.97-19.09 5.12l-15.37-8.87c-3.66-2.71-5.26-8.68-2.56-13.34z" fill="#4285F4"/>
  <path d="M62.46 26.62l-37.82 65.5 16.56 9.56c10.69 6.17 24.37 2.51 30.54-8.18l24.53-42.49c3.86-6.68 1.57-15.23-5.12-19.09l-15.37-8.87c-4.66-2.7-10.62-1.1-13.32 3.57z" fill="#FBBC04"/>
  <path d="M96.1 10.51L84.38 3.75C71.02-3.97 53.93.61 46.21 13.98L24.47 51.62c-3.86 6.68-1.57 15.23 5.12 19.09l11.72 6.76c6.68 3.86 15.23 1.57 19.09-5.12l25.95-44.95c5.39-9.34 17.33-12.53 26.66-7.14L96.1 10.51z" fill="#34A853"/>
  <path d="M49.58 25.01l-12.93-7.45c-5.76-3.32-13.13-1.35-16.46 4.4L4.67 48.77c-7.64 13.2-3.11 30.08 10.12 37.7l9.85 5.67 11.94 6.88 5.18 2.98c-9.2-6.16-12.12-18.5-6.5-28.21l4.02-6.94 14.71-25.42c3.45-5.94 1.48-13.3-4.29-16.62z" fill="#EA4335"/>
</svg>